<?xml version="1.0" encoding="UTF-8" standalone="no"?><!DOCTYPE svg PUBLIC "-//W3C//DTD SVG 1.1//EN" "http://www.w3.org/Graphics/SVG/1.1/DTD/svg11.dtd"><svg width="100%" height="100%" viewBox="0 0 596 596" version="1.1" xmlns="http://www.w3.org/2000/svg" xmlns:xlink="http://www.w3.org/1999/xlink" xml:space="preserve" style="fill-rule:evenodd;clip-rule:evenodd;stroke-linejoin:round;stroke-miterlimit:1.5;"><g><path d="M317.049,260.672c10.772,-5.239 23.176,-12.088 25.464,-19.142c3.788,-11.682 5.138,-57.302 23.47,-57.029c18.948,0.281 28.781,24.526 39.262,24.785c10.481,0.259 39.696,-30.075 36.63,-49.352c-3.066,-19.277 -11.261,-25.78 -20.179,-34.437c-8.918,-8.657 -16.451,-10.748 -16.451,-10.748c0,0 45.908,2.962 66.9,10.748c21.927,8.133 30.435,18.365 37.058,25.601l0,0c0,0 8.73,18.839 10.32,26.164c1.59,7.326 0.582,12.549 0,14.696c-0.899,3.318 -5.703,10.529 -5.703,10.529c0,0 2.949,7.254 6.656,14.971c4.577,9.532 10.563,17.513 9.366,25.961c-0.764,5.394 -10.536,7.117 -16.022,6.281c-5.486,-0.836 -4.617,2.073 -4.617,2.073c0,0 2.226,4.561 2.424,6.427c0.197,1.866 0.434,5.795 0.788,6.859c0.353,1.064 1.049,4.023 0.79,5.857c-0.648,4.589 -4.002,5.97 -4.002,5.97c0,0 2.697,4.947 0,6.808c-1.765,1.218 -8.174,3.879 -7.299,5.977c0.875,2.098 4.455,8.943 1.118,19.704c-3.633,11.719 -16.85,14.551 -17.424,13.768c0,0 -14.362,10.39 -19.016,13.303c-4.655,2.912 -13.38,8.977 -15.867,9.93c-2.487,0.952 -5.108,2.582 -6.961,3.312c-1.852,0.731 -4.576,3.538 -7.382,4.638c-2.116,0.83 -9.52,1.536 -13.032,1.832c24.451,61.921 -31.881,151.757 -131.675,153.261c-101.48,1.53 -220.742,-50.816 -274.736,-119.45c34.925,6.549 82.805,5.378 119.451,-11.945c-22.996,-17.857 -30.037,-34.703 -35.835,-68.649c13.73,13.232 23.898,16.854 41.807,13.768c-9.83,-5.949 -33.22,-39.221 -35.93,-71.37c24.984,19.294 46.89,30.241 53.848,31.921c-7.343,-11.646 -14.965,-29.558 -11.945,-60.956c92.932,62.01 134.971,24.826 168.724,37.934Z" style="fill:#fb8c00;"/><path d="M405.963,452.968c8.088,-10.443 13.505,-20.041 17.098,-32.241c0.775,-6.268 0.254,-12.54 -1.353,-18.813c4.664,-4.743 6.344,-30.147 4.936,-32.252c-7.078,-10.584 -24.138,6.237 -32.471,-2.107l0,70.194l11.79,15.219Z" style="fill:#e6e6e6;"/><path d="M134.533,378.44c-12.119,-8.56 -20.252,-21.32 -20.252,-21.32c45.123,-4.28 67.925,-49.78 79.146,-112.055c25.728,9.745 55.74,17.373 85.495,13.509l18.716,0l11.255,5.972c0,0 82.618,74.765 97.07,131.81c5.316,20.98 4.449,41.663 0,56.612c-23.053,77.468 -159.796,71.791 -207.899,44.372c-39.238,-22.365 -62.495,-54.356 -71.262,-115.242c2.612,-1.197 5.188,-2.416 7.731,-3.658Z" style="fill:#1a1a1a;"/><clipPath id="_clip1"><path d="M134.533,378.44c-12.119,-8.56 -20.252,-21.32 -20.252,-21.32c45.123,-4.28 67.925,-49.78 79.146,-112.055c25.728,9.745 55.74,17.373 85.495,13.509l18.716,0l11.255,5.972c0,0 82.618,74.765 97.07,131.81c5.316,20.98 4.449,41.663 0,56.612c-23.053,77.468 -159.796,71.791 -207.899,44.372c-39.238,-22.365 -62.495,-54.356 -71.262,-115.242c2.612,-1.197 5.188,-2.416 7.731,-3.658Z"/></clipPath><g clip-path="url(#_clip1)"><path d="M132.348,377.875c30.581,22.995 72.771,39.498 132.202,30.012" style="fill:none;stroke:#333;stroke-width:0.8px;"/></g><path d="M116.073,357.12c-1.496,-2.096 -2.532,-4.253 -3.583,-6.453c42.041,-6.206 65.043,-49.159 72.267,-107.178l8.362,2.542c-9.838,62.418 -33.104,104.371 -77.046,111.089Z" style="fill:#fff;"/><path d="M423.821,356.408l-0.014,-0.29c0,0 16.119,13.229 15.977,20.114c-0.143,6.885 -9.255,23.711 -10.751,23.663c0.595,1.647 1.094,12.871 0,16.94c-5.261,19.574 -23.07,36.133 -23.07,36.133c0.719,-22.203 1.089,-39.256 15.663,-51.021c1.228,-0.112 -2.659,-12.507 -1.552,-17.951c0.595,-2.919 2.93,-15.547 1.552,-17.917c-0.609,-1.047 2.539,-8.702 2.195,-9.671Z" style="fill:#f00;"/><path d="M316.75,260.365c0,0 -13.09,-2.71 -7.857,4.181c7.404,9.749 28.862,32.45 33.539,38.821c10.635,14.491 53.814,70.781 68.684,83.018c1.532,1.262 6.51,-7.17 10.938,-17.32c2.648,-6.07 1.84,-12.383 1.604,-13.139c0,0 0.127,-6.741 -1.604,-10.751c-1.919,-4.444 -7.922,-11.994 -19.897,-23.89c-16.287,-16.178 -45.591,-39.139 -54.204,-44.002c-7.344,-4.148 -25.719,-14.272 -31.203,-16.918Z" style="fill:#fff;"/><path d="M305.729,261.151c0,0 79.857,90.858 88.444,106.404c4.335,7.847 9.971,20.382 13.065,34.392c3.762,17.041 2.773,35.346 1.556,43.911c-1.682,11.837 -6.176,24.583 -14.621,30.162c0,0 -0.537,-20.217 -0.975,-34.09c-0.144,-4.562 -2.201,-16.126 -2.201,-16.126l8.174,-11.945l-13.737,-7.167c0,0 -23.182,-42.321 -32.061,-58.531c-8.605,-15.71 -59.163,-77.642 -59.163,-77.642l-15.108,-11.74l6.591,-10.08l20.036,12.452Z" style="fill:#333;"/><g id="Flagge"><path d="M383.045,383.399c3.214,-3.06 6.879,-5.541 11.128,-7.27l2.183,7.867c-3.503,0.762 -7.307,3.593 -11.221,7.168l-2.09,-7.765Z" style="fill:#f00;"/><clipPath id="_clip2"><path d="M383.045,383.399c3.214,-3.06 6.879,-5.541 11.128,-7.27l2.183,7.867c-3.503,0.762 -7.307,3.593 -11.221,7.168l-2.09,-7.765Z"/></clipPath><g clip-path="url(#_clip2)"><path d="M384.538,390.268c4.609,-4.324 8.846,-7.045 11.818,-7.466" style="fill:none;stroke:#fff;stroke-width:0.6px;"/></g><clipPath id="_clip3"><path d="M383.045,383.399c3.214,-3.06 6.879,-5.541 11.128,-7.27l2.183,7.867c-3.503,0.762 -7.307,3.593 -11.221,7.168l-2.09,-7.765Z"/></clipPath><g clip-path="url(#_clip3)"><path d="M384.239,388.775c3.704,-3.77 7.896,-6.561 11.647,-7.466" style="fill:none;stroke:#fff;stroke-width:0.6px;"/></g><clipPath id="_clip4"><path d="M383.045,383.399c3.214,-3.06 6.879,-5.541 11.128,-7.27l2.183,7.867c-3.503,0.762 -7.307,3.593 -11.221,7.168l-2.09,-7.765Z"/></clipPath><g clip-path="url(#_clip4)"><path d="M389.017,383.101c1.772,-1.43 4.282,-2.661 6.57,-3.285" style="fill:none;stroke:#fff;stroke-width:0.6px;"/></g><clipPath id="_clip5"><path d="M383.045,383.399c3.214,-3.06 6.879,-5.541 11.128,-7.27l2.183,7.867c-3.503,0.762 -7.307,3.593 -11.221,7.168l-2.09,-7.765Z"/></clipPath><g clip-path="url(#_clip5)"><path d="M388.121,381.906c0.925,-0.702 2.209,-1.45 3.549,-2.107c1.238,-0.607 2.524,-1.135 3.618,-1.476" style="fill:none;stroke:#fff;stroke-width:0.65px;"/></g><clipPath id="_clip6"><path d="M383.045,383.399c3.214,-3.06 6.879,-5.541 11.128,-7.27l2.183,7.867c-3.503,0.762 -7.307,3.593 -11.221,7.168l-2.09,-7.765Z"/></clipPath><g clip-path="url(#_clip6)"><path d="M387.823,380.413c2.022,-1.341 4.745,-2.901 6.868,-3.584" style="fill:none;stroke:#fff;stroke-width:0.6px;"/></g><path d="M384.13,387.431c1.724,-1.626 3.406,-2.975 5.111,-4.106l-1.418,-3.794c-1.643,1.149 -3.256,2.38 -4.778,3.868l1.085,4.032Z" style="fill:#00f;"/><path d="M383.484,383.275l0.117,0.146l0.175,-0.067l-0.102,0.157l0.118,0.146l-0.181,-0.049l-0.102,0.157l-0.01,-0.187l-0.181,-0.049l0.175,-0.067l-0.009,-0.187Z" style="fill:#fff;"/><path d="M384.818,382.155l0.117,0.146l0.175,-0.067l-0.102,0.157l0.117,0.146l-0.18,-0.049l-0.103,0.157l-0.009,-0.187l-0.181,-0.049l0.175,-0.066l-0.009,-0.188Z" style="fill:#fff;"/><path d="M385.282,381.772l0.117,0.146l0.175,-0.067l-0.102,0.157l0.117,0.146l-0.18,-0.049l-0.103,0.157l-0.009,-0.187l-0.181,-0.049l0.175,-0.067l-0.009,-0.187Z" style="fill:#fff;"/><path d="M385.732,381.376l0.117,0.146l0.175,-0.067l-0.102,0.157l0.118,0.146l-0.181,-0.049l-0.103,0.157l-0.009,-0.187l-0.181,-0.049l0.175,-0.067l-0.009,-0.187Z" style="fill:#fff;"/><path d="M386.222,380.995l0.118,0.146l0.175,-0.067l-0.103,0.157l0.118,0.146l-0.181,-0.049l-0.102,0.157l-0.01,-0.187l-0.181,-0.049l0.175,-0.067l-0.009,-0.187Z" style="fill:#fff;"/><path d="M386.759,380.571l0.117,0.146l0.175,-0.067l-0.102,0.157l0.117,0.146l-0.18,-0.049l-0.103,0.157l-0.009,-0.187l-0.181,-0.049l0.175,-0.067l-0.009,-0.187Z" style="fill:#fff;"/><path d="M387.294,380.171l0.118,0.146l0.175,-0.067l-0.102,0.157l0.117,0.146l-0.181,-0.049l-0.102,0.157l-0.009,-0.187l-0.181,-0.049l0.175,-0.067l-0.01,-0.187Z" style="fill:#fff;"/><path d="M383.952,383.662l0.117,0.146l0.175,-0.067l-0.102,0.157l0.117,0.145l-0.18,-0.048l-0.103,0.156l-0.009,-0.187l-0.181,-0.048l0.175,-0.067l-0.009,-0.187Z" style="fill:#fff;"/><path d="M384.431,383.276l0.118,0.146l0.175,-0.067l-0.102,0.157l0.117,0.146l-0.181,-0.049l-0.102,0.157l-0.009,-0.187l-0.181,-0.049l0.175,-0.067l-0.01,-0.187Z" style="fill:#fff;"/><path d="M384.973,382.84l0.117,0.146l0.175,-0.067l-0.102,0.157l0.118,0.146l-0.181,-0.049l-0.102,0.157l-0.01,-0.187l-0.181,-0.049l0.175,-0.066l-0.009,-0.188Z" style="fill:#fff;"/><path d="M385.448,382.447l0.118,0.146l0.175,-0.067l-0.102,0.157l0.117,0.146l-0.181,-0.049l-0.102,0.157l-0.009,-0.187l-0.181,-0.049l0.175,-0.067l-0.01,-0.187Z" style="fill:#fff;"/><path d="M385.928,382.061l0.117,0.146l0.175,-0.067l-0.102,0.157l0.118,0.146l-0.181,-0.049l-0.103,0.157l-0.009,-0.187l-0.181,-0.049l0.175,-0.067l-0.009,-0.187Z" style="fill:#fff;"/><path d="M386.37,381.674l0.118,0.145l0.175,-0.066l-0.102,0.157l0.117,0.145l-0.181,-0.048l-0.102,0.156l-0.009,-0.187l-0.181,-0.048l0.175,-0.067l-0.01,-0.187Z" style="fill:#fff;"/><path d="M386.887,381.286l0.118,0.146l0.175,-0.067l-0.102,0.157l0.117,0.146l-0.181,-0.049l-0.102,0.157l-0.009,-0.187l-0.181,-0.049l0.175,-0.066l-0.01,-0.188Z" style="fill:#fff;"/><path d="M387.434,380.863l0.118,0.146l0.175,-0.067l-0.102,0.157l0.117,0.146l-0.181,-0.049l-0.102,0.157l-0.009,-0.187l-0.181,-0.049l0.175,-0.067l-0.01,-0.187Z" style="fill:#fff;"/><path d="M383.87,384.552l0.117,0.146l0.175,-0.067l-0.102,0.157l0.117,0.146l-0.18,-0.049l-0.103,0.157l-0.009,-0.187l-0.181,-0.049l0.175,-0.067l-0.009,-0.187Z" style="fill:#fff;"/><path d="M384.405,384.05l0.117,0.146l0.175,-0.067l-0.102,0.157l0.118,0.146l-0.181,-0.049l-0.102,0.157l-0.01,-0.187l-0.181,-0.049l0.175,-0.067l-0.009,-0.187Z" style="fill:#fff;"/><path d="M384.977,383.56l0.117,0.146l0.175,-0.067l-0.102,0.157l0.117,0.146l-0.18,-0.049l-0.103,0.157l-0.009,-0.187l-0.181,-0.049l0.175,-0.066l-0.009,-0.188Z" style="fill:#fff;"/><path d="M385.554,383.091l0.118,0.146l0.175,-0.067l-0.102,0.157l0.117,0.146l-0.181,-0.049l-0.102,0.157l-0.009,-0.187l-0.181,-0.049l0.175,-0.067l-0.01,-0.187Z" style="fill:#fff;"/><path d="M386.071,382.694l0.118,0.146l0.175,-0.067l-0.102,0.157l0.117,0.146l-0.18,-0.049l-0.103,0.157l-0.009,-0.187l-0.181,-0.049l0.175,-0.067l-0.01,-0.187Z" style="fill:#fff;"/><path d="M386.511,382.366l0.118,0.146l0.175,-0.067l-0.102,0.157l0.117,0.146l-0.181,-0.049l-0.102,0.157l-0.009,-0.187l-0.181,-0.049l0.175,-0.067l-0.01,-0.187Z" style="fill:#fff;"/><path d="M387.045,381.89l0.118,0.146l0.175,-0.067l-0.103,0.157l0.118,0.146l-0.181,-0.049l-0.102,0.157l-0.01,-0.187l-0.18,-0.049l0.175,-0.067l-0.01,-0.187Z" style="fill:#fff;"/><path d="M387.718,381.488l0.118,0.146l0.175,-0.067l-0.102,0.157l0.117,0.146l-0.181,-0.049l-0.102,0.157l-0.009,-0.187l-0.181,-0.049l0.175,-0.067l-0.01,-0.187Z" style="fill:#fff;"/><path d="M384.129,385.129l0.118,0.146l0.175,-0.067l-0.103,0.157l0.118,0.146l-0.181,-0.049l-0.102,0.157l-0.01,-0.187l-0.181,-0.049l0.175,-0.066l-0.009,-0.188Z" style="fill:#fff;"/><path d="M384.605,384.676l0.118,0.146l0.175,-0.067l-0.103,0.157l0.118,0.146l-0.181,-0.049l-0.102,0.157l-0.01,-0.187l-0.181,-0.049l0.176,-0.067l-0.01,-0.187Z" style="fill:#fff;"/><path d="M385.133,384.223l0.118,0.146l0.175,-0.067l-0.102,0.157l0.117,0.146l-0.18,-0.049l-0.103,0.157l-0.009,-0.187l-0.181,-0.049l0.175,-0.067l-0.01,-0.187Z" style="fill:#fff;"/><path d="M385.635,383.781l0.118,0.146l0.175,-0.067l-0.103,0.157l0.118,0.146l-0.181,-0.049l-0.102,0.157l-0.01,-0.187l-0.181,-0.049l0.175,-0.066l-0.009,-0.188Z" style="fill:#fff;"/><path d="M386.176,383.339l0.118,0.146l0.175,-0.066l-0.102,0.156l0.117,0.146l-0.181,-0.049l-0.102,0.157l-0.009,-0.187l-0.181,-0.049l0.175,-0.066l-0.01,-0.188Z" style="fill:#fff;"/><path d="M386.787,382.984l0.117,0.146l0.175,-0.067l-0.102,0.157l0.118,0.146l-0.181,-0.049l-0.102,0.157l-0.01,-0.187l-0.181,-0.049l0.175,-0.067l-0.009,-0.187Z" style="fill:#fff;"/><path d="M387.415,382.46l0.118,0.145l0.175,-0.066l-0.102,0.157l0.117,0.145l-0.181,-0.048l-0.102,0.156l-0.009,-0.187l-0.181,-0.049l0.175,-0.066l-0.01,-0.187Z" style="fill:#fff;"/><path d="M388.078,382.117l0.118,0.146l0.175,-0.067l-0.103,0.157l0.118,0.145l-0.181,-0.048l-0.102,0.157l-0.01,-0.188l-0.181,-0.048l0.175,-0.067l-0.009,-0.187Z" style="fill:#fff;"/><path d="M388.272,382.694l0.117,0.146l0.175,-0.067l-0.102,0.157l0.118,0.145l-0.181,-0.048l-0.102,0.157l-0.01,-0.188l-0.181,-0.048l0.175,-0.067l-0.009,-0.187Z" style="fill:#fff;"/><path d="M387.644,383.087l0.117,0.145l0.175,-0.066l-0.102,0.156l0.117,0.146l-0.18,-0.049l-0.103,0.157l-0.009,-0.187l-0.181,-0.049l0.175,-0.066l-0.009,-0.187Z" style="fill:#fff;"/><path d="M387.052,383.505l0.118,0.146l0.175,-0.067l-0.102,0.157l0.117,0.146l-0.181,-0.049l-0.102,0.157l-0.009,-0.187l-0.181,-0.049l0.175,-0.067l-0.01,-0.187Z" style="fill:#fff;"/><path d="M386.443,383.951l0.117,0.146l0.175,-0.067l-0.102,0.157l0.117,0.146l-0.18,-0.049l-0.103,0.157l-0.009,-0.187l-0.181,-0.049l0.175,-0.067l-0.009,-0.187Z" style="fill:#fff;"/><path d="M385.889,384.349l0.118,0.146l0.175,-0.067l-0.103,0.157l0.118,0.146l-0.181,-0.049l-0.102,0.157l-0.01,-0.187l-0.181,-0.049l0.175,-0.067l-0.009,-0.187Z" style="fill:#fff;"/><path d="M385.275,384.892l0.118,0.146l0.175,-0.067l-0.102,0.157l0.117,0.146l-0.181,-0.049l-0.102,0.157l-0.009,-0.187l-0.181,-0.049l0.175,-0.067l-0.01,-0.187Z" style="fill:#fff;"/><path d="M384.743,385.328l0.118,0.146l0.175,-0.067l-0.103,0.157l0.118,0.146l-0.181,-0.049l-0.102,0.157l-0.01,-0.187l-0.181,-0.049l0.175,-0.067l-0.009,-0.187Z" style="fill:#fff;"/><path d="M384.245,385.728l0.117,0.146l0.175,-0.067l-0.102,0.157l0.117,0.145l-0.18,-0.048l-0.103,0.157l-0.009,-0.188l-0.181,-0.048l0.175,-0.067l-0.009,-0.187Z" style="fill:#fff;"/><path d="M384.292,386.31l0.118,0.145l0.175,-0.066l-0.103,0.157l0.118,0.145l-0.181,-0.048l-0.102,0.156l-0.01,-0.187l-0.181,-0.048l0.175,-0.067l-0.009,-0.187Z" style="fill:#fff;"/><path d="M384.812,385.865l0.117,0.145l0.175,-0.066l-0.102,0.156l0.118,0.146l-0.181,-0.049l-0.103,0.157l-0.009,-0.187l-0.181,-0.049l0.175,-0.066l-0.009,-0.187Z" style="fill:#fff;"/><path d="M385.371,385.419l0.117,0.145l0.175,-0.066l-0.102,0.157l0.117,0.145l-0.18,-0.049l-0.103,0.157l-0.009,-0.187l-0.181,-0.049l0.175,-0.066l-0.009,-0.187Z" style="fill:#fff;"/><path d="M385.868,385.017l0.118,0.146l0.175,-0.067l-0.103,0.157l0.118,0.146l-0.181,-0.049l-0.102,0.157l-0.01,-0.187l-0.18,-0.049l0.175,-0.067l-0.01,-0.187Z" style="fill:#fff;"/><path d="M386.364,384.574l0.118,0.146l0.175,-0.067l-0.102,0.157l0.117,0.146l-0.181,-0.049l-0.102,0.157l-0.009,-0.187l-0.181,-0.049l0.175,-0.067l-0.01,-0.187Z" style="fill:#fff;"/><path d="M386.914,384.138l0.118,0.145l0.175,-0.066l-0.103,0.157l0.118,0.145l-0.181,-0.048l-0.102,0.156l-0.01,-0.187l-0.181,-0.048l0.175,-0.067l-0.009,-0.187Z" style="fill:#fff;"/><path d="M387.582,383.677l0.117,0.145l0.175,-0.066l-0.102,0.157l0.118,0.145l-0.181,-0.048l-0.103,0.156l-0.009,-0.187l-0.181,-0.048l0.175,-0.067l-0.009,-0.187Z" style="fill:#fff;"/><path d="M388.233,383.274l0.118,0.146l0.175,-0.067l-0.103,0.157l0.118,0.145l-0.181,-0.048l-0.102,0.157l-0.01,-0.188l-0.18,-0.048l0.175,-0.067l-0.01,-0.187Z" style="fill:#fff;"/><path d="M383.87,382.951l0.117,0.146l0.175,-0.067l-0.102,0.157l0.117,0.146l-0.18,-0.049l-0.103,0.157l-0.009,-0.187l-0.181,-0.049l0.175,-0.067l-0.009,-0.187Z" style="fill:#fff;"/><path d="M384.379,382.557l0.118,0.146l0.175,-0.067l-0.102,0.157l0.117,0.146l-0.181,-0.049l-0.102,0.157l-0.009,-0.187l-0.181,-0.049l0.175,-0.067l-0.01,-0.187Z" style="fill:#fff;"/></g><path d="M578.307,141.948c-1.884,-8.642 -67.79,-48.06 -136.432,-58.346c-68.641,-10.285 -112.853,1.067 -117.568,4.826c-36.224,28.881 -32.422,127.268 -38.165,149.812c-1.353,5.308 -5.632,10.204 -10.09,12.502c-4.459,2.298 5.8,9.414 6.58,13.161c0.78,3.746 7.817,19.325 10.309,19.302c2.492,-0.023 2.423,-10.52 8.335,-14.696c5.912,-4.176 37.449,-15.297 41.237,-26.979c3.788,-11.682 5.138,-57.302 23.47,-57.029c18.948,0.281 28.781,24.526 39.262,24.785c10.481,0.259 39.696,-30.075 36.63,-49.352c-3.066,-19.277 -11.261,-25.78 -20.179,-34.437c-8.918,-8.657 -16.451,-10.748 -16.451,-10.748c0,0 45.908,2.962 66.9,10.748c35.751,13.26 35.827,32.1 50.23,34.437c14.402,2.337 57.447,-11.035 55.932,-17.986Z" style="fill:#ffe0b2;"/><path d="M553.749,259.552c0,0 -29.287,16.492 -44.546,17.334c-5.436,0.3 0.596,-23.836 0.596,-23.836c9.246,9.988 28.655,5.909 43.95,6.502Z" style="fill:#fb8c00;"/><path d="M543.477,278.294c0,0 -26.362,9.853 -41.62,10.695c-5.436,0.3 0,-19.201 0,-19.201c9.246,9.988 26.324,7.913 41.62,8.506Z" style="fill:#fb8c00;"/><path d="M518.223,195.098c2.444,0 5.765,-0.771 7.079,-2.529c1.164,-1.557 0.841,-5.775 0,-6.573c-1.238,-1.177 -3.09,-2.24 -4.958,-2.529c-1.808,-0.279 -4.245,-0.3 -5.158,0c-0.913,0.301 -0.264,2.221 -0.506,3.54c-0.132,0.721 -1.463,4.264 0.506,5.562c1.631,1.076 1.929,2.529 3.037,2.529Z" style="fill:#ffe0b2;"/><path d="M470.69,185.996c3.664,-3.613 19.414,-11.618 24.778,-10.62c5.363,0.998 9.944,-0.758 11.63,1.012c1.686,1.77 3.378,7.64 0,9.608c-3.378,1.967 -14.465,2.908 -17.699,3.539c-3.263,0.637 -14.287,5.565 -15.675,5.563c-1.388,-0.003 -2.772,-1.103 -3.034,-3.54c-0.285,-2.634 -0.832,-4.743 0,-5.562Z" style="fill:#ffe0b2;"/></g></svg>