<?xml version="1.0" encoding="UTF-8" standalone="no"?><!DOCTYPE svg PUBLIC "-//W3C//DTD SVG 1.1//EN" "http://www.w3.org/Graphics/SVG/1.1/DTD/svg11.dtd"><svg width="100%" height="100%" viewBox="0 0 511 114" version="1.1" xmlns="http://www.w3.org/2000/svg" xmlns:xlink="http://www.w3.org/1999/xlink" xml:space="preserve" style="fill-rule:evenodd;clip-rule:evenodd;stroke-linejoin:round;stroke-miterlimit:1.5;"><text x="28.474px" y="86.391px" style="font-family:'Arista2.0Alternate', 'Arista 2.0 Alternate';font-weight:700;font-size:89.609px;fill:#fb8c00;">T<tspan x="69.067px 99.803px " y="86.391px 86.391px ">ru</tspan>mpet</text><g><path d="M428.249,49.325c2.147,-1.044 4.619,-2.409 5.075,-3.815c0.755,-2.328 1.024,-11.421 4.678,-11.367c3.776,0.056 5.736,4.889 7.825,4.94c2.089,0.052 7.912,-5.994 7.301,-9.836c-0.611,-3.842 -2.244,-5.138 -4.022,-6.864c-1.777,-1.725 -3.279,-2.142 -3.279,-2.142c0,0 9.15,0.59 13.334,2.142c4.37,1.621 6.066,3.661 7.386,5.103c0,0 1.74,3.755 2.057,5.215c0.317,1.46 0.116,2.501 0,2.929c-0.179,0.661 -1.137,2.098 -1.137,2.098c0,0 0.588,1.446 1.327,2.984c0.912,1.9 2.105,3.491 1.867,5.175c-0.152,1.075 -2.1,1.418 -3.194,1.251c-1.093,-0.166 -0.92,0.414 -0.92,0.414c0,0 0.444,0.909 0.483,1.281c0.04,0.371 0.087,1.155 0.157,1.367c0.071,0.212 0.21,0.801 0.158,1.167c-0.129,0.915 -0.798,1.19 -0.798,1.19c0,0 0.538,0.986 0,1.357c-0.352,0.243 -1.629,0.773 -1.455,1.191c0.175,0.418 0.888,1.782 0.223,3.927c-0.724,2.336 -3.358,2.9 -3.473,2.744c0,0 -2.862,2.071 -3.79,2.652c-0.927,0.58 -2.666,1.789 -3.162,1.979c-0.496,0.19 -1.018,0.515 -1.387,0.66c-0.37,0.146 -0.913,0.705 -1.472,0.925c-0.422,0.165 -1.897,0.306 -2.597,0.365c4.873,12.341 -6.354,30.247 -26.245,30.546c-20.226,0.305 -43.996,-10.128 -54.758,-23.807c6.961,1.305 16.504,1.071 23.808,-2.381c-4.583,-3.559 -5.986,-6.917 -7.142,-13.683c2.737,2.638 4.763,3.359 8.333,2.744c-1.96,-1.185 -6.621,-7.817 -7.162,-14.224c4.98,3.845 9.346,6.027 10.733,6.362c-1.464,-2.321 -2.983,-5.891 -2.381,-12.149c18.523,12.359 26.901,4.948 33.629,7.56l0,0Z" style="fill:#fb8c00;"/><path d="M445.97,87.652c1.612,-2.081 2.692,-3.994 3.408,-6.426c0.155,-1.249 0.051,-2.499 -0.27,-3.75c0.93,-0.945 1.265,-6.008 0.984,-6.428c-1.41,-2.109 -4.811,1.243 -6.472,-0.42l0,13.991l2.35,3.033Z" style="fill:#e6e6e6;"/><path d="M391.871,72.798c-2.415,-1.706 -4.036,-4.25 -4.036,-4.25c8.993,-0.853 13.538,-9.921 15.775,-22.333c5.127,1.942 11.109,3.462 17.04,2.692l3.73,0l2.243,1.19c0,0 16.467,14.902 19.347,26.272c1.06,4.181 0.887,8.303 0,11.283c-4.594,15.44 -31.849,14.309 -41.436,8.844c-7.821,-4.458 -12.456,-10.834 -14.204,-22.969c0.521,-0.239 1.034,-0.482 1.541,-0.729l0,0Z" style="fill:#1a1a1a;"/><clipPath id="_clip1"><path d="M391.871,72.798c-2.415,-1.706 -4.036,-4.25 -4.036,-4.25c8.993,-0.853 13.538,-9.921 15.775,-22.333c5.127,1.942 11.109,3.462 17.04,2.692l3.73,0l2.243,1.19c0,0 16.467,14.902 19.347,26.272c1.06,4.181 0.887,8.303 0,11.283c-4.594,15.44 -31.849,14.309 -41.436,8.844c-7.821,-4.458 -12.456,-10.834 -14.204,-22.969c0.521,-0.239 1.034,-0.482 1.541,-0.729l0,0Z"/></clipPath><g clip-path="url(#_clip1)"><path d="M391.436,72.685c6.095,4.583 14.504,7.872 26.349,5.982" style="fill:none;stroke:#333;stroke-width:0.16px;"/></g><path d="M388.192,68.548c-0.298,-0.417 -0.505,-0.847 -0.714,-1.286c8.379,-1.237 12.964,-9.798 14.403,-21.362l1.667,0.507c-1.961,12.441 -6.598,20.802 -15.356,22.141Z" style="fill:#fff;"/><path d="M449.53,68.406l-0.003,-0.057c0,0 3.213,2.636 3.184,4.009c-0.028,1.372 -1.844,4.726 -2.143,4.716c0.119,0.328 0.218,2.565 0,3.376c-1.048,3.902 -4.598,7.202 -4.598,7.202c0.144,-4.425 0.217,-7.824 3.122,-10.169c0.245,-0.022 -0.53,-2.493 -0.309,-3.578c0.118,-0.582 0.584,-3.099 0.309,-3.571c-0.121,-0.209 0.506,-1.734 0.438,-1.928l0,0Z" style="fill:#f00;"/><path d="M428.189,49.264c0,0 -2.609,-0.54 -1.566,0.833c1.476,1.943 5.753,6.468 6.685,7.738c2.12,2.888 10.726,14.107 13.689,16.546c0.306,0.252 1.298,-1.429 2.18,-3.452c0.528,-1.21 0.367,-2.468 0.32,-2.619c0,0 0.025,-1.343 -0.32,-2.142c-0.382,-0.886 -1.578,-2.391 -3.965,-4.762c-3.246,-3.224 -9.087,-7.801 -10.804,-8.77c-1.463,-0.827 -5.126,-2.845 -6.219,-3.372Z" style="fill:#fff;"/><path d="M425.993,49.421c0,0 15.916,18.109 17.627,21.207c0.864,1.564 1.988,4.063 2.604,6.855c0.75,3.396 0.553,7.045 0.311,8.752c-0.336,2.359 -1.231,4.9 -2.915,6.012c0,0 -0.107,-4.03 -0.194,-6.795c-0.029,-0.909 -0.439,-3.214 -0.439,-3.214l1.63,-2.381l-2.738,-1.428c0,0 -4.621,-8.435 -6.39,-11.666c-1.716,-3.131 -11.792,-15.475 -11.792,-15.475l-3.011,-2.34l1.313,-2.009l3.994,2.482Z" style="fill:#333;"/><g id="Flagge"><path d="M441.403,73.786c0.64,-0.61 1.371,-1.104 2.217,-1.449l0.436,1.568c-0.699,0.152 -1.457,0.716 -2.237,1.429l-0.416,-1.548l0,0Z" style="fill:#f00;"/><clipPath id="_clip2"><path d="M441.403,73.786c0.64,-0.61 1.371,-1.104 2.217,-1.449l0.436,1.568c-0.699,0.152 -1.457,0.716 -2.237,1.429l-0.416,-1.548l0,0Z"/></clipPath><g clip-path="url(#_clip2)"><path d="M441.7,75.155c0.919,-0.862 1.763,-1.404 2.356,-1.488" style="fill:none;stroke:#fff;stroke-width:0.12px;"/></g><clipPath id="_clip3"><path d="M441.403,73.786c0.64,-0.61 1.371,-1.104 2.217,-1.449l0.436,1.568c-0.699,0.152 -1.457,0.716 -2.237,1.429l-0.416,-1.548l0,0Z"/></clipPath><g clip-path="url(#_clip3)"><path d="M441.64,74.858c0.739,-0.752 1.574,-1.308 2.322,-1.488" style="fill:none;stroke:#fff;stroke-width:0.12px;"/></g><clipPath id="_clip4"><path d="M441.403,73.786c0.64,-0.61 1.371,-1.104 2.217,-1.449l0.436,1.568c-0.699,0.152 -1.457,0.716 -2.237,1.429l-0.416,-1.548l0,0Z"/></clipPath><g clip-path="url(#_clip4)"><path d="M442.593,73.727c0.353,-0.285 0.853,-0.531 1.309,-0.655" style="fill:none;stroke:#fff;stroke-width:0.12px;"/></g><clipPath id="_clip5"><path d="M441.403,73.786c0.64,-0.61 1.371,-1.104 2.217,-1.449l0.436,1.568c-0.699,0.152 -1.457,0.716 -2.237,1.429l-0.416,-1.548l0,0Z"/></clipPath><g clip-path="url(#_clip5)"><path d="M442.414,73.489c0.185,-0.14 0.441,-0.289 0.708,-0.42c0.246,-0.121 0.503,-0.227 0.721,-0.295" style="fill:none;stroke:#fff;stroke-width:0.13px;"/></g><clipPath id="_clip6"><path d="M441.403,73.786c0.64,-0.61 1.371,-1.104 2.217,-1.449l0.436,1.568c-0.699,0.152 -1.457,0.716 -2.237,1.429l-0.416,-1.548l0,0Z"/></clipPath><g clip-path="url(#_clip6)"><path d="M442.355,73.191c0.403,-0.267 0.946,-0.578 1.369,-0.714" style="fill:none;stroke:#fff;stroke-width:0.12px;"/></g><path d="M441.619,74.59c0.343,-0.324 0.679,-0.593 1.018,-0.819l-0.282,-0.756c-0.328,0.229 -0.649,0.475 -0.952,0.771l0.216,0.804Z" style="fill:#00f;"/><path d="M441.49,73.761l0.023,0.029l0.035,-0.013l-0.02,0.031l0.023,0.03l-0.036,-0.01l-0.02,0.031l-0.002,-0.037l-0.036,-0.01l0.035,-0.013l-0.002,-0.038l0,0Z" style="fill:#fff;"/><path d="M441.756,73.538l0.023,0.029l0.035,-0.013l-0.02,0.031l0.023,0.029l-0.036,-0.009l-0.02,0.031l-0.002,-0.037l-0.036,-0.01l0.035,-0.013l-0.002,-0.038l0,0Z" style="fill:#fff;"/><path d="M441.848,73.462l0.024,0.029l0.035,-0.013l-0.021,0.031l0.024,0.029l-0.036,-0.01l-0.021,0.031l-0.002,-0.037l-0.036,-0.01l0.035,-0.013l-0.002,-0.037l0,0Z" style="fill:#fff;"/><path d="M441.938,73.383l0.023,0.029l0.035,-0.013l-0.02,0.031l0.023,0.029l-0.036,-0.01l-0.02,0.032l-0.002,-0.038l-0.036,-0.009l0.035,-0.014l-0.002,-0.037l0,0Z" style="fill:#fff;"/><path d="M442.036,73.307l0.023,0.029l0.035,-0.013l-0.02,0.031l0.023,0.029l-0.036,-0.01l-0.02,0.032l-0.002,-0.038l-0.036,-0.009l0.035,-0.014l-0.002,-0.037l0,0Z" style="fill:#fff;"/><path d="M442.143,73.222l0.023,0.03l0.035,-0.014l-0.02,0.031l0.023,0.03l-0.036,-0.01l-0.02,0.031l-0.002,-0.037l-0.036,-0.01l0.035,-0.013l-0.002,-0.038l0,0Z" style="fill:#fff;"/><path d="M442.249,73.143l0.024,0.029l0.035,-0.014l-0.021,0.032l0.024,0.029l-0.036,-0.01l-0.021,0.031l-0.001,-0.037l-0.036,-0.01l0.034,-0.013l-0.002,-0.037l0,0Z" style="fill:#fff;"/><path d="M441.583,73.839l0.024,0.029l0.034,-0.014l-0.02,0.032l0.023,0.028l-0.035,-0.009l-0.021,0.031l-0.002,-0.037l-0.036,-0.01l0.035,-0.013l-0.002,-0.037l0,0Z" style="fill:#fff;"/><path d="M441.679,73.762l0.023,0.029l0.035,-0.014l-0.02,0.032l0.023,0.029l-0.036,-0.01l-0.02,0.031l-0.002,-0.037l-0.036,-0.01l0.035,-0.013l-0.002,-0.037l0,0Z" style="fill:#fff;"/><path d="M441.787,73.675l0.023,0.029l0.035,-0.014l-0.02,0.032l0.023,0.029l-0.036,-0.01l-0.02,0.031l-0.002,-0.037l-0.036,-0.01l0.035,-0.013l-0.002,-0.037l0,0Z" style="fill:#fff;"/><path d="M441.881,73.596l0.024,0.029l0.035,-0.013l-0.02,0.031l0.023,0.029l-0.036,-0.009l-0.021,0.031l-0.001,-0.037l-0.036,-0.01l0.034,-0.013l-0.002,-0.038l0,0Z" style="fill:#fff;"/><path d="M441.977,73.519l0.023,0.03l0.035,-0.014l-0.02,0.031l0.024,0.03l-0.037,-0.01l-0.02,0.031l-0.002,-0.037l-0.036,-0.01l0.035,-0.013l-0.002,-0.038l0,0Z" style="fill:#fff;"/><path d="M442.065,73.442l0.024,0.029l0.035,-0.013l-0.021,0.031l0.024,0.029l-0.036,-0.009l-0.021,0.031l-0.002,-0.038l-0.036,-0.009l0.035,-0.013l-0.002,-0.038l0,0Z" style="fill:#fff;"/><path d="M442.168,73.365l0.024,0.029l0.035,-0.013l-0.021,0.031l0.024,0.029l-0.036,-0.01l-0.021,0.032l-0.002,-0.038l-0.036,-0.009l0.035,-0.014l-0.002,-0.037l0,0Z" style="fill:#fff;"/><path d="M442.277,73.281l0.024,0.029l0.035,-0.014l-0.021,0.032l0.024,0.029l-0.036,-0.01l-0.021,0.031l-0.002,-0.037l-0.036,-0.01l0.035,-0.013l-0.002,-0.037l0,0Z" style="fill:#fff;"/><path d="M441.567,74.016l0.023,0.029l0.035,-0.013l-0.02,0.031l0.023,0.029l-0.036,-0.01l-0.02,0.032l-0.002,-0.038l-0.036,-0.009l0.035,-0.014l-0.002,-0.037l0,0Z" style="fill:#fff;"/><path d="M441.674,73.916l0.023,0.029l0.035,-0.013l-0.021,0.031l0.024,0.029l-0.036,-0.01l-0.02,0.032l-0.002,-0.038l-0.037,-0.01l0.035,-0.013l-0.001,-0.037l0,0Z" style="fill:#fff;"/><path d="M441.788,73.818l0.023,0.029l0.035,-0.013l-0.021,0.031l0.024,0.029l-0.036,-0.009l-0.021,0.031l-0.001,-0.037l-0.036,-0.01l0.034,-0.013l-0.001,-0.038l0,0Z" style="fill:#fff;"/><path d="M441.903,73.725l0.023,0.029l0.035,-0.014l-0.02,0.032l0.023,0.029l-0.036,-0.01l-0.02,0.031l-0.002,-0.037l-0.036,-0.01l0.035,-0.013l-0.002,-0.037l0,0Z" style="fill:#fff;"/><path d="M442.006,73.646l0.023,0.029l0.035,-0.014l-0.02,0.032l0.023,0.029l-0.036,-0.01l-0.02,0.031l-0.002,-0.037l-0.036,-0.01l0.035,-0.013l-0.002,-0.037l0,0Z" style="fill:#fff;"/><path d="M442.093,73.58l0.024,0.029l0.035,-0.013l-0.021,0.031l0.024,0.029l-0.036,-0.009l-0.021,0.031l-0.001,-0.037l-0.037,-0.01l0.035,-0.014l-0.002,-0.037l0,0Z" style="fill:#fff;"/><path d="M442.2,73.485l0.023,0.029l0.035,-0.013l-0.02,0.031l0.023,0.029l-0.036,-0.009l-0.02,0.031l-0.002,-0.037l-0.036,-0.01l0.035,-0.013l-0.002,-0.038l0,0Z" style="fill:#fff;"/><path d="M442.334,73.405l0.023,0.029l0.035,-0.013l-0.02,0.031l0.023,0.029l-0.036,-0.009l-0.02,0.031l-0.002,-0.037l-0.036,-0.01l0.035,-0.014l-0.002,-0.037l0,0Z" style="fill:#fff;"/><path d="M441.619,74.131l0.023,0.029l0.035,-0.013l-0.021,0.031l0.024,0.029l-0.036,-0.01l-0.02,0.032l-0.002,-0.038l-0.037,-0.009l0.035,-0.014l-0.001,-0.037l0,0Z" style="fill:#fff;"/><path d="M441.713,74.041l0.024,0.029l0.035,-0.014l-0.021,0.032l0.024,0.029l-0.036,-0.01l-0.021,0.031l-0.002,-0.037l-0.036,-0.01l0.035,-0.013l-0.002,-0.037l0,0Z" style="fill:#fff;"/><path d="M441.819,73.95l0.023,0.029l0.035,-0.013l-0.02,0.031l0.023,0.029l-0.036,-0.009l-0.02,0.031l-0.002,-0.037l-0.036,-0.01l0.035,-0.013l-0.002,-0.038l0,0Z" style="fill:#fff;"/><path d="M441.919,73.862l0.023,0.029l0.035,-0.013l-0.02,0.031l0.023,0.029l-0.036,-0.009l-0.02,0.031l-0.002,-0.037l-0.036,-0.01l0.035,-0.013l-0.002,-0.038l0,0Z" style="fill:#fff;"/><path d="M442.027,73.774l0.023,0.029l0.035,-0.013l-0.02,0.031l0.023,0.029l-0.036,-0.009l-0.02,0.031l-0.002,-0.037l-0.036,-0.01l0.035,-0.013l-0.002,-0.038l0,0Z" style="fill:#fff;"/><path d="M442.148,73.703l0.024,0.029l0.035,-0.013l-0.021,0.031l0.024,0.03l-0.036,-0.01l-0.021,0.031l-0.002,-0.037l-0.036,-0.01l0.035,-0.013l-0.002,-0.038l0,0Z" style="fill:#fff;"/><path d="M442.274,73.599l0.023,0.029l0.035,-0.013l-0.02,0.031l0.023,0.029l-0.036,-0.01l-0.021,0.031l-0.001,-0.037l-0.036,-0.01l0.035,-0.013l-0.002,-0.037l0,0Z" style="fill:#fff;"/><path d="M442.406,73.531l0.023,0.029l0.035,-0.014l-0.02,0.032l0.023,0.029l-0.036,-0.01l-0.02,0.031l-0.002,-0.037l-0.036,-0.01l0.034,-0.013l-0.001,-0.037l0,0Z" style="fill:#fff;"/><path d="M442.444,73.646l0.024,0.029l0.035,-0.014l-0.021,0.032l0.024,0.029l-0.036,-0.01l-0.021,0.031l-0.002,-0.037l-0.036,-0.01l0.035,-0.013l-0.002,-0.037l0,0Z" style="fill:#fff;"/><path d="M442.319,73.724l0.023,0.029l0.035,-0.013l-0.02,0.031l0.023,0.029l-0.036,-0.01l-0.02,0.031l-0.002,-0.037l-0.036,-0.01l0.035,-0.013l-0.002,-0.037l0,0Z" style="fill:#fff;"/><path d="M442.201,73.807l0.024,0.029l0.035,-0.013l-0.021,0.031l0.024,0.029l-0.037,-0.009l-0.02,0.031l-0.002,-0.037l-0.036,-0.01l0.035,-0.014l-0.002,-0.037l0,0Z" style="fill:#fff;"/><path d="M442.08,73.896l0.023,0.029l0.035,-0.013l-0.02,0.031l0.023,0.029l-0.036,-0.01l-0.02,0.032l-0.002,-0.037l-0.036,-0.01l0.035,-0.014l-0.002,-0.037l0,0Z" style="fill:#fff;"/><path d="M441.969,73.975l0.024,0.03l0.035,-0.014l-0.021,0.031l0.024,0.03l-0.036,-0.01l-0.021,0.031l-0.002,-0.037l-0.036,-0.01l0.035,-0.013l-0.002,-0.038l0,0Z" style="fill:#fff;"/><path d="M441.847,74.084l0.024,0.029l0.034,-0.014l-0.02,0.032l0.023,0.029l-0.036,-0.01l-0.02,0.031l-0.002,-0.037l-0.036,-0.01l0.035,-0.013l-0.002,-0.037l0,0Z" style="fill:#fff;"/><path d="M441.741,74.171l0.023,0.029l0.035,-0.014l-0.02,0.032l0.023,0.029l-0.036,-0.01l-0.02,0.031l-0.002,-0.037l-0.036,-0.01l0.035,-0.013l-0.002,-0.037l0,0Z" style="fill:#fff;"/><path d="M441.642,74.25l0.023,0.029l0.035,-0.013l-0.02,0.031l0.023,0.029l-0.036,-0.009l-0.021,0.031l-0.001,-0.038l-0.036,-0.009l0.034,-0.013l-0.001,-0.038l0,0Z" style="fill:#fff;"/><path d="M441.651,74.366l0.024,0.029l0.034,-0.013l-0.02,0.031l0.023,0.029l-0.036,-0.009l-0.02,0.031l-0.002,-0.038l-0.036,-0.009l0.035,-0.013l-0.002,-0.038l0,0Z" style="fill:#fff;"/><path d="M441.755,74.278l0.023,0.028l0.035,-0.013l-0.02,0.031l0.023,0.03l-0.036,-0.01l-0.021,0.031l-0.001,-0.037l-0.036,-0.01l0.034,-0.013l-0.001,-0.037l0,0Z" style="fill:#fff;"/><path d="M441.866,74.189l0.023,0.029l0.035,-0.014l-0.02,0.032l0.023,0.029l-0.036,-0.01l-0.02,0.031l-0.002,-0.037l-0.036,-0.01l0.035,-0.013l-0.002,-0.037l0,0Z" style="fill:#fff;"/><path d="M441.965,74.109l0.024,0.029l0.035,-0.014l-0.021,0.032l0.024,0.029l-0.037,-0.01l-0.02,0.031l-0.002,-0.037l-0.036,-0.01l0.035,-0.013l-0.002,-0.037l0,0Z" style="fill:#fff;"/><path d="M442.064,74.02l0.024,0.029l0.034,-0.013l-0.02,0.031l0.023,0.029l-0.036,-0.009l-0.02,0.031l-0.002,-0.037l-0.036,-0.01l0.035,-0.013l-0.002,-0.038l0,0Z" style="fill:#fff;"/><path d="M442.174,73.933l0.023,0.029l0.035,-0.013l-0.02,0.031l0.023,0.029l-0.036,-0.009l-0.02,0.031l-0.002,-0.037l-0.036,-0.01l0.034,-0.013l-0.001,-0.038l0,0Z" style="fill:#fff;"/><path d="M442.307,73.842l0.023,0.028l0.035,-0.013l-0.02,0.032l0.023,0.028l-0.036,-0.009l-0.02,0.031l-0.002,-0.037l-0.036,-0.01l0.035,-0.013l-0.002,-0.037l0,0Z" style="fill:#fff;"/><path d="M442.437,73.761l0.023,0.029l0.035,-0.013l-0.021,0.031l0.024,0.029l-0.036,-0.009l-0.02,0.031l-0.002,-0.038l-0.036,-0.009l0.035,-0.014l-0.002,-0.037l0,0Z" style="fill:#fff;"/><path d="M441.567,73.697l0.023,0.029l0.035,-0.013l-0.02,0.031l0.023,0.029l-0.036,-0.01l-0.02,0.031l-0.002,-0.037l-0.036,-0.01l0.035,-0.013l-0.002,-0.037l0,0Z" style="fill:#fff;"/><path d="M441.668,73.618l0.024,0.029l0.035,-0.013l-0.021,0.031l0.024,0.029l-0.036,-0.009l-0.021,0.031l-0.001,-0.037l-0.036,-0.01l0.034,-0.013l-0.002,-0.038l0,0Z" style="fill:#fff;"/></g><path d="M480.32,25.662c-0.375,-1.722 -13.511,-9.579 -27.192,-11.629c-13.681,-2.05 -22.493,0.213 -23.433,0.962c-7.219,5.756 -6.462,25.366 -7.606,29.859c-0.27,1.058 -1.123,2.034 -2.011,2.492c-0.889,0.458 1.156,1.876 1.311,2.623c0.156,0.747 1.558,3.852 2.055,3.847c0.496,-0.004 0.483,-2.096 1.661,-2.929c1.178,-0.832 7.464,-3.049 8.219,-5.377c0.755,-2.328 1.024,-11.421 4.678,-11.367c3.776,0.056 5.736,4.889 7.825,4.94c2.089,0.052 7.912,-5.994 7.301,-9.836c-0.611,-3.842 -2.244,-5.138 -4.022,-6.864c-1.777,-1.725 -3.279,-2.142 -3.279,-2.142c0,0 9.15,0.59 13.334,2.142c7.126,2.643 7.141,6.398 10.012,6.864c2.87,0.466 11.449,-2.199 11.147,-3.585l0,0Z" style="fill:#ffe0b2;"/><path d="M475.426,49.102c0,0 -5.837,3.287 -8.879,3.455c-1.083,0.06 0.119,-4.751 0.119,-4.751c1.843,1.991 5.711,1.178 8.76,1.296Z" style="fill:#fb8c00;"/><path d="M473.378,52.837c0,0 -5.254,1.964 -8.295,2.132c-1.083,0.06 0,-3.827 0,-3.827c1.843,1.991 5.247,1.577 8.295,1.695Z" style="fill:#fb8c00;"/><path d="M468.345,36.256c0.487,0 1.149,-0.154 1.411,-0.504c0.232,-0.311 0.168,-1.152 0,-1.311c-0.247,-0.234 -0.616,-0.446 -0.988,-0.504c-0.361,-0.055 -0.846,-0.059 -1.028,0c-0.182,0.06 -0.053,0.443 -0.101,0.706c-0.026,0.144 -0.292,0.85 0.101,1.109c0.325,0.214 0.384,0.504 0.605,0.504Z" style="fill:#ffe0b2;"/><path d="M458.871,34.441c0.73,-0.72 3.87,-2.315 4.939,-2.116c1.069,0.199 1.982,-0.151 2.318,0.201c0.336,0.353 0.673,1.523 0,1.915c-0.674,0.392 -2.883,0.58 -3.528,0.706c-0.65,0.127 -2.847,1.109 -3.124,1.109c-0.277,-0.001 -0.553,-0.22 -0.605,-0.706c-0.057,-0.525 -0.166,-0.945 0,-1.109l0,0Z" style="fill:#ffe0b2;"/></g></svg>