<?xml version="1.0" encoding="UTF-8" standalone="no"?>
<!DOCTYPE svg PUBLIC "-//W3C//DTD SVG 1.1//EN" "http://www.w3.org/Graphics/SVG/1.1/DTD/svg11.dtd">
<svg width="100%" height="100%" viewBox="0 0 2126 473" version="1.1" xmlns="http://www.w3.org/2000/svg" xmlns:xlink="http://www.w3.org/1999/xlink" xml:space="preserve" style="fill-rule:evenodd;clip-rule:evenodd;stroke-linejoin:round;stroke-miterlimit:1.5;">
    <g transform="matrix(0.754921,0,0,0.754921,-6.18643,-1262.82)">
        <path d="M383.96,1833.57C393.522,1833.57 401.518,1836.87 407.947,1843.46C414.377,1850.05 417.592,1857.97 417.592,1867.2C417.592,1876.76 414.377,1884.67 407.947,1890.94C401.518,1897.2 393.522,1900.34 383.96,1900.34L328.567,1900.34L328.567,2115.97C328.567,2125.54 325.434,2133.53 319.17,2139.96C312.905,2146.39 304.992,2149.61 295.43,2149.61C285.868,2149.61 277.954,2146.39 271.69,2139.96C265.425,2133.53 262.293,2125.54 262.293,2115.97L262.293,1900.34L206.405,1900.34C197.173,1900.34 189.342,1897.2 182.912,1890.94C176.482,1884.67 173.268,1876.76 173.268,1867.2C173.268,1857.97 176.482,1850.05 182.912,1843.46C189.342,1836.87 197.173,1833.57 206.405,1833.57L383.96,1833.57Z" style="fill:rgb(251,140,0);fill-rule:nonzero;"/>
        <path d="M435.397,2150.1C426.494,2150.1 419.076,2147.22 413.141,2141.45C407.206,2135.68 403.908,2128.01 403.249,2118.45L403.249,2026.95C403.579,2011.12 406.958,1996.2 413.388,1982.19C419.817,1968.18 428.39,1955.98 439.106,1945.59C449.822,1935.2 462.352,1926.96 476.695,1920.86C491.037,1914.76 506.287,1911.38 522.443,1910.72C531.676,1910.72 539.342,1913.86 545.442,1920.12C551.541,1926.38 554.921,1933.97 555.581,1942.87C555.581,1951.77 552.448,1959.27 546.183,1965.37C539.919,1971.47 532.17,1974.69 522.938,1975.02C515.354,1975.02 508.265,1976.42 501.671,1979.22C495.077,1982.03 489.306,1985.9 484.361,1990.85C479.415,1995.79 475.458,2001.64 472.491,2008.4C469.523,2015.16 468.039,2022.5 468.039,2030.41L468.039,2120.43C467.38,2129 464.165,2136.09 458.395,2141.69C452.625,2147.3 444.959,2150.1 435.397,2150.1Z" style="fill:rgb(251,140,0);fill-rule:nonzero;"/>
        <path d="M606.523,1909.73C615.095,1909.73 622.679,1912.95 629.273,1919.38C635.868,1925.81 639.165,1933.64 639.165,1942.87L639.165,2029.92C639.165,2037.5 640.649,2044.67 643.616,2051.43C646.584,2058.19 650.541,2064.04 655.486,2068.99C660.432,2073.93 666.285,2077.89 673.044,2080.86C679.803,2083.83 686.975,2085.31 694.558,2085.31C701.812,2085.31 708.737,2083.99 715.331,2081.35C721.925,2078.72 727.778,2075.09 732.889,2070.47C737.999,2065.86 742.038,2060.25 745.006,2053.66C747.973,2047.06 749.457,2039.97 749.457,2032.39L749.457,1942.38C749.457,1934.13 752.59,1926.71 758.854,1920.12C765.119,1913.53 772.703,1910.06 781.605,1909.73C790.508,1909.73 798.174,1912.95 804.603,1919.38C811.033,1925.81 814.413,1932.98 814.742,1940.89L814.742,2029.92C814.742,2046.4 811.61,2061.9 805.345,2076.41C799.08,2090.92 790.508,2103.61 779.627,2114.49C768.746,2125.37 756.052,2133.94 741.544,2140.21C727.036,2146.47 711.374,2149.61 694.558,2149.61C678.732,2150.27 663.565,2147.55 649.057,2141.45C634.549,2135.35 621.772,2126.94 610.727,2116.22C599.681,2105.51 590.861,2092.98 584.266,2078.63C577.672,2064.29 574.375,2049.21 574.375,2033.38L574.375,1942.38C574.375,1933.8 577.425,1926.3 583.525,1919.87C589.624,1913.44 597.29,1910.06 606.523,1909.73Z" style="fill:rgb(251,140,0);fill-rule:nonzero;"/>
        <path d="M935.421,1910.23C945.312,1910.23 954.957,1911.79 964.354,1914.93C973.751,1918.06 982.406,1922.92 990.319,1929.52C1006.15,1916.66 1024.61,1910.23 1045.71,1910.23C1057.25,1910.23 1068.38,1912.45 1079.1,1916.9C1089.81,1921.36 1099.21,1927.37 1107.29,1934.96C1115.37,1942.54 1121.8,1951.61 1126.58,1962.16C1131.36,1972.71 1133.75,1983.92 1133.75,1995.79L1133.75,2119.93C1133.75,2127.85 1130.45,2134.77 1123.86,2140.7C1117.26,2146.64 1109.68,2149.61 1101.11,2149.61C1092.53,2149.61 1085.03,2146.39 1078.6,2139.96C1072.17,2133.53 1068.96,2126.03 1068.96,2117.46L1068.96,1997.28C1068.96,1991.01 1066.73,1985.73 1062.28,1981.45C1057.83,1977.16 1052.31,1975.02 1045.71,1975.02C1040.11,1975.02 1034.91,1976.91 1030.13,1980.71C1025.35,1984.5 1022.96,1990.02 1022.96,1997.28L1022.96,2056.13C1022.96,2065.03 1019.75,2072.62 1013.32,2078.88C1006.89,2085.15 999.222,2088.28 990.319,2088.28C982.076,2088.28 974.658,2085.39 968.063,2079.62C961.469,2073.85 958.171,2066.85 958.171,2058.6L958.171,1997.28C957.842,1990.68 955.369,1985.32 950.753,1981.2C946.137,1977.08 941.026,1975.02 935.421,1975.02C929.156,1975.02 923.798,1977.16 919.347,1981.45C914.895,1985.73 912.505,1991.17 912.175,1997.77L912.175,2120.43C911.516,2128.34 908.136,2135.18 902.036,2140.95C895.936,2146.72 888.6,2149.61 880.027,2149.61C875.411,2149.61 871.125,2148.78 867.168,2147.13C863.211,2145.49 859.749,2143.18 856.782,2140.21C853.814,2137.24 851.424,2133.78 849.61,2129.82C847.797,2125.87 847.055,2121.74 847.385,2117.46L847.385,1995.79C847.385,1984.25 849.693,1973.29 854.309,1962.9C858.925,1952.52 865.19,1943.45 873.103,1935.7C881.016,1927.95 890.331,1921.77 901.047,1917.15C911.763,1912.54 923.221,1910.23 935.421,1910.23Z" style="fill:rgb(251,140,0);fill-rule:nonzero;"/>
        <path d="M1286.58,1910.23C1302.73,1910.23 1318.06,1913.36 1332.57,1919.62C1347.08,1925.89 1359.77,1934.46 1370.65,1945.34C1381.54,1956.22 1390.19,1968.92 1396.62,1983.43C1403.05,1997.93 1406.26,2013.43 1406.26,2029.92C1406.26,2046.4 1403.21,2061.9 1397.11,2076.41C1391.01,2090.92 1382.61,2103.61 1371.89,2114.49C1361.17,2125.37 1348.48,2133.94 1333.81,2140.21C1319.13,2146.47 1303.39,2149.61 1286.58,2149.61C1266.13,2149.61 1247.67,2145.49 1231.18,2137.24L1231.18,2194.12C1231.18,2202.69 1228.05,2210.11 1221.78,2216.38C1215.52,2222.64 1207.77,2225.77 1198.54,2225.77C1190.3,2225.77 1182.96,2222.89 1176.53,2217.12C1170.1,2211.35 1166.72,2204.18 1166.39,2195.6L1166.39,2029.92C1166.39,2013.76 1169.61,1998.43 1176.04,1983.92C1182.46,1969.41 1191.12,1956.72 1202,1945.84C1212.88,1934.96 1225.58,1926.3 1240.08,1919.87C1254.59,1913.44 1270.09,1910.23 1286.58,1910.23ZM1231.18,2029.92C1231.18,2038.16 1232.66,2045.66 1235.63,2052.42C1238.6,2059.18 1242.64,2065.03 1247.75,2069.98C1252.86,2074.92 1258.8,2078.8 1265.56,2081.6C1272.31,2084.4 1279.32,2085.8 1286.58,2085.8C1294.49,2085.8 1301.74,2084.32 1308.34,2081.35C1314.93,2078.39 1320.7,2074.35 1325.65,2069.24C1330.59,2064.13 1334.47,2058.19 1337.27,2051.43C1340.07,2044.67 1341.47,2037.5 1341.47,2029.92C1341.47,2022.33 1339.99,2015.16 1337.02,2008.4C1334.06,2001.64 1330.1,1995.79 1325.15,1990.85C1320.21,1985.9 1314.44,1982.03 1307.84,1979.22C1301.25,1976.42 1294.16,1975.02 1286.58,1975.02C1278.66,1975.02 1271.33,1976.5 1264.57,1979.47C1257.81,1982.44 1251.95,1986.39 1247.01,1991.34C1242.06,1996.29 1238.19,2002.06 1235.38,2008.65C1232.58,2015.24 1231.18,2022.33 1231.18,2029.92Z" style="fill:rgb(251,140,0);fill-rule:nonzero;"/>
        <path d="M1544.25,1910.23C1560.08,1910.23 1575.25,1913.53 1589.75,1920.12C1604.26,1926.71 1617.04,1935.53 1628.09,1946.58C1639.13,1957.63 1647.95,1970.32 1654.55,1984.66C1661.14,1999.01 1664.44,2014.09 1664.44,2029.92C1664.44,2038.49 1661.22,2045.25 1654.79,2050.2C1648.36,2055.14 1640.37,2057.45 1630.81,2057.12L1499.25,2057.12C1510.13,2075.91 1525.13,2085.31 1544.25,2085.31C1549.53,2085.31 1553.98,2084.82 1557.61,2083.83C1561.23,2082.84 1564.45,2081.68 1567.25,2080.37C1570.05,2079.05 1572.86,2077.89 1575.66,2076.9C1578.46,2075.91 1581.68,2075.42 1585.3,2075.42C1592.23,2075.75 1598.25,2077.73 1603.36,2081.35C1608.47,2084.98 1612.26,2089.51 1614.73,2094.95C1617.2,2100.39 1618.03,2106.25 1617.2,2112.51C1616.38,2118.78 1613.49,2124.55 1608.55,2129.82C1599.65,2137.08 1589.75,2142.11 1578.87,2144.91C1567.99,2147.71 1556.45,2149.28 1544.25,2149.61C1528.43,2150.27 1513.26,2147.38 1498.75,2140.95C1484.24,2134.52 1471.47,2125.78 1460.42,2114.74C1449.38,2103.69 1440.64,2090.75 1434.21,2075.91C1427.78,2061.08 1424.56,2045.74 1424.56,2029.92C1424.56,2014.42 1427.78,1999.42 1434.21,1984.91C1440.64,1970.4 1449.29,1957.63 1460.17,1946.58C1471.05,1935.53 1483.75,1926.71 1498.26,1920.12C1512.76,1913.53 1528.1,1910.23 1544.25,1910.23ZM1589.26,2002.22C1583.65,1992 1577.06,1984.83 1569.48,1980.71C1561.89,1976.59 1553.49,1974.52 1544.25,1974.52C1534.69,1974.52 1526.2,1976.59 1518.78,1980.71C1511.36,1984.83 1504.85,1992 1499.25,2002.22L1589.26,2002.22Z" style="fill:rgb(251,140,0);fill-rule:nonzero;"/>
        <path d="M1723.79,1833.57C1733.02,1833.57 1740.77,1836.78 1747.03,1843.21C1753.3,1849.64 1756.76,1857.64 1757.42,1867.2L1757.42,1906.77L1842.49,1906.77C1852.05,1906.77 1859.8,1910.06 1865.73,1916.66C1871.67,1923.25 1874.63,1931 1874.63,1939.9C1874.63,1948.48 1871.34,1956.14 1864.74,1962.9C1858.15,1969.66 1850.73,1973.04 1842.49,1973.04L1757.42,1973.04L1757.42,2027.44C1757.42,2035.03 1758.82,2042.2 1761.62,2048.96C1764.42,2055.72 1768.3,2061.74 1773.25,2067.01C1778.19,2072.29 1784.04,2076.41 1790.8,2079.38C1797.56,2082.34 1804.9,2083.83 1812.81,2083.83C1821.38,2083.83 1828.72,2082.67 1834.82,2080.37C1840.92,2078.06 1846.28,2074.59 1850.89,2069.98C1857.82,2064.04 1865.49,2060.99 1873.89,2060.83C1882.3,2060.66 1890.13,2063.88 1897.38,2070.47C1900.68,2073.44 1903.15,2076.82 1904.8,2080.61C1906.45,2084.4 1907.36,2088.36 1907.52,2092.48C1907.69,2096.6 1907.11,2100.64 1905.79,2104.6C1904.47,2108.56 1902.33,2112.02 1899.36,2114.99C1887.82,2126.2 1875.13,2134.77 1861.28,2140.7C1847.43,2146.64 1832.6,2149.61 1816.77,2149.61C1799.62,2149.61 1783.47,2146.72 1768.3,2140.95C1753.13,2135.18 1739.78,2126.94 1728.24,2116.22C1716.7,2105.51 1707.55,2092.65 1700.79,2077.64C1694.03,2062.64 1690.48,2045.91 1690.15,2027.44L1690.15,1864.73C1690.15,1855.82 1693.53,1848.4 1700.29,1842.47C1707.05,1836.54 1714.88,1833.57 1723.79,1833.57Z" style="fill:rgb(251,140,0);fill-rule:nonzero;"/>
    </g>
    <g transform="matrix(0.830464,0,0,0.830464,1521.07,-10.9569)">
        <path d="M317.049,260.672C327.821,255.433 340.225,248.584 342.513,241.53C346.301,229.848 347.651,184.228 365.983,184.501C384.931,184.782 394.764,209.027 405.245,209.286C415.726,209.545 444.941,179.211 441.875,159.934C438.809,140.657 430.614,134.154 421.696,125.497C412.778,116.84 405.245,114.749 405.245,114.749C405.245,114.749 451.153,117.711 472.145,125.497C494.072,133.63 502.58,143.862 509.203,151.098C509.203,151.098 517.933,169.937 519.523,177.262C521.113,184.588 520.105,189.811 519.523,191.958C518.624,195.276 513.82,202.487 513.82,202.487C513.82,202.487 516.769,209.741 520.476,217.458C525.053,226.99 531.039,234.971 529.842,243.419C529.078,248.813 519.306,250.536 513.82,249.7C508.334,248.864 509.203,251.773 509.203,251.773C509.203,251.773 511.429,256.334 511.627,258.2C511.824,260.066 512.061,263.995 512.415,265.059C512.768,266.123 513.464,269.082 513.205,270.916C512.557,275.505 509.203,276.886 509.203,276.886C509.203,276.886 511.9,281.833 509.203,283.694C507.438,284.912 501.029,287.573 501.904,289.671C502.779,291.769 506.359,298.614 503.022,309.375C499.389,321.094 486.172,323.926 485.598,323.143C485.598,323.143 471.236,333.533 466.582,336.446C461.927,339.358 453.202,345.423 450.715,346.376C448.228,347.328 445.607,348.958 443.754,349.688C441.902,350.419 439.178,353.226 436.372,354.326C434.256,355.156 426.852,355.862 423.34,356.158C447.791,418.079 391.459,507.915 291.665,509.419C190.185,510.949 70.923,458.603 16.929,389.969C51.854,396.518 99.734,395.347 136.38,378.024C113.384,360.167 106.343,343.321 100.545,309.375C114.275,322.607 124.443,326.229 142.352,323.143C132.522,317.194 109.132,283.922 106.422,251.773C131.406,271.067 153.312,282.014 160.27,283.694C152.927,272.048 145.305,254.136 148.325,222.738C241.257,284.748 283.296,247.564 317.049,260.672L317.049,260.672Z" style="fill:rgb(251,140,0);"/>
        <path d="M405.963,452.968C414.051,442.525 419.468,432.927 423.061,420.727C423.836,414.459 423.315,408.187 421.708,401.914C426.372,397.171 428.052,371.767 426.644,369.662C419.566,359.078 402.506,375.899 394.173,367.555L394.173,437.749L405.963,452.968Z" style="fill:rgb(230,230,230);"/>
        <path d="M134.533,378.44C122.414,369.88 114.281,357.12 114.281,357.12C159.404,352.84 182.206,307.34 193.427,245.065C219.155,254.81 249.167,262.438 278.922,258.574L297.638,258.574L308.893,264.546C308.893,264.546 391.511,339.311 405.963,396.356C411.279,417.336 410.412,438.019 405.963,452.968C382.91,530.436 246.167,524.759 198.064,497.34C158.826,474.975 135.569,442.984 126.802,382.098C129.414,380.901 131.99,379.682 134.533,378.44L134.533,378.44Z" style="fill:rgb(26,26,26);"/>
        <clipPath id="_clip1">
            <path d="M134.533,378.44C122.414,369.88 114.281,357.12 114.281,357.12C159.404,352.84 182.206,307.34 193.427,245.065C219.155,254.81 249.167,262.438 278.922,258.574L297.638,258.574L308.893,264.546C308.893,264.546 391.511,339.311 405.963,396.356C411.279,417.336 410.412,438.019 405.963,452.968C382.91,530.436 246.167,524.759 198.064,497.34C158.826,474.975 135.569,442.984 126.802,382.098C129.414,380.901 131.99,379.682 134.533,378.44L134.533,378.44Z"/>
        </clipPath>
        <g clip-path="url(#_clip1)">
            <path d="M132.348,377.875C162.929,400.87 205.119,417.373 264.55,407.887" style="fill:none;stroke:rgb(51,51,51);stroke-width:0.8px;"/>
        </g>
        <path d="M116.073,357.12C114.577,355.024 113.541,352.867 112.49,350.667C154.531,344.461 177.533,301.508 184.757,243.489L193.119,246.031C183.281,308.449 160.015,350.402 116.073,357.12Z" style="fill:white;"/>
        <path d="M423.821,356.408L423.807,356.118C423.807,356.118 439.926,369.347 439.784,376.232C439.641,383.117 430.529,399.943 429.033,399.895C429.628,401.542 430.127,412.766 429.033,416.835C423.772,436.409 405.963,452.968 405.963,452.968C406.682,430.765 407.052,413.712 421.626,401.947C422.854,401.835 418.967,389.44 420.074,383.996C420.669,381.077 423.004,368.449 421.626,366.079C421.017,365.032 424.165,357.377 423.821,356.408L423.821,356.408Z" style="fill:rgb(255,0,0);"/>
        <path d="M316.75,260.365C316.75,260.365 303.66,257.655 308.893,264.546C316.297,274.295 337.755,296.996 342.432,303.367C353.067,317.858 396.246,374.148 411.116,386.385C412.648,387.647 417.626,379.215 422.054,369.065C424.702,362.995 423.894,356.682 423.658,355.926C423.658,355.926 423.785,349.185 422.054,345.175C420.135,340.731 414.132,333.181 402.157,321.285C385.87,305.107 356.566,282.146 347.953,277.283C340.609,273.135 322.234,263.011 316.75,260.365Z" style="fill:white;"/>
        <path d="M305.729,261.151C305.729,261.151 385.586,352.009 394.173,367.555C398.508,375.402 404.144,387.937 407.238,401.947C411,418.988 410.011,437.293 408.794,445.858C407.112,457.695 402.618,470.441 394.173,476.02C394.173,476.02 393.636,455.803 393.198,441.93C393.054,437.368 390.997,425.804 390.997,425.804L399.171,413.859L385.434,406.692C385.434,406.692 362.252,364.371 353.373,348.161C344.768,332.451 294.21,270.519 294.21,270.519L279.102,258.779L285.693,248.699L305.729,261.151Z" style="fill:rgb(51,51,51);"/>
        <g id="Flagge">
            <path d="M383.045,383.399C386.259,380.339 389.924,377.858 394.173,376.129L396.356,383.996C392.853,384.758 389.049,387.589 385.135,391.164L383.045,383.399L383.045,383.399Z" style="fill:rgb(255,0,0);"/>
            <clipPath id="_clip2">
                <path d="M383.045,383.399C386.259,380.339 389.924,377.858 394.173,376.129L396.356,383.996C392.853,384.758 389.049,387.589 385.135,391.164L383.045,383.399L383.045,383.399Z"/>
            </clipPath>
            <g clip-path="url(#_clip2)">
                <path d="M384.538,390.268C389.147,385.944 393.384,383.223 396.356,382.802" style="fill:none;stroke:white;stroke-width:0.6px;"/>
            </g>
            <clipPath id="_clip3">
                <path d="M383.045,383.399C386.259,380.339 389.924,377.858 394.173,376.129L396.356,383.996C392.853,384.758 389.049,387.589 385.135,391.164L383.045,383.399L383.045,383.399Z"/>
            </clipPath>
            <g clip-path="url(#_clip3)">
                <path d="M384.239,388.775C387.943,385.005 392.135,382.214 395.886,381.309" style="fill:none;stroke:white;stroke-width:0.6px;"/>
            </g>
            <clipPath id="_clip4">
                <path d="M383.045,383.399C386.259,380.339 389.924,377.858 394.173,376.129L396.356,383.996C392.853,384.758 389.049,387.589 385.135,391.164L383.045,383.399L383.045,383.399Z"/>
            </clipPath>
            <g clip-path="url(#_clip4)">
                <path d="M389.017,383.101C390.789,381.671 393.299,380.44 395.587,379.816" style="fill:none;stroke:white;stroke-width:0.6px;"/>
            </g>
            <clipPath id="_clip5">
                <path d="M383.045,383.399C386.259,380.339 389.924,377.858 394.173,376.129L396.356,383.996C392.853,384.758 389.049,387.589 385.135,391.164L383.045,383.399L383.045,383.399Z"/>
            </clipPath>
            <g clip-path="url(#_clip5)">
                <path d="M388.121,381.906C389.046,381.204 390.33,380.456 391.67,379.799C392.908,379.192 394.194,378.664 395.288,378.323" style="fill:none;stroke:white;stroke-width:0.65px;"/>
            </g>
            <clipPath id="_clip6">
                <path d="M383.045,383.399C386.259,380.339 389.924,377.858 394.173,376.129L396.356,383.996C392.853,384.758 389.049,387.589 385.135,391.164L383.045,383.399L383.045,383.399Z"/>
            </clipPath>
            <g clip-path="url(#_clip6)">
                <path d="M387.823,380.413C389.845,379.072 392.568,377.512 394.691,376.829" style="fill:none;stroke:white;stroke-width:0.6px;"/>
            </g>
            <path d="M384.13,387.431C385.854,385.805 387.536,384.456 389.241,383.325L387.823,379.531C386.18,380.68 384.567,381.911 383.045,383.399L384.13,387.431Z" style="fill:rgb(0,0,255);"/>
            <path d="M383.484,383.275L383.601,383.421L383.776,383.354L383.674,383.511L383.792,383.657L383.611,383.608L383.509,383.765L383.499,383.578L383.318,383.529L383.493,383.462L383.484,383.275L383.484,383.275Z" style="fill:white;"/>
            <path d="M384.818,382.155L384.935,382.301L385.11,382.234L385.008,382.391L385.125,382.537L384.945,382.488L384.842,382.645L384.833,382.458L384.652,382.409L384.827,382.343L384.818,382.155L384.818,382.155Z" style="fill:white;"/>
            <path d="M385.282,381.772L385.399,381.918L385.574,381.851L385.472,382.008L385.589,382.154L385.409,382.105L385.306,382.262L385.297,382.075L385.116,382.026L385.291,381.959L385.282,381.772L385.282,381.772Z" style="fill:white;"/>
            <path d="M385.732,381.376L385.849,381.522L386.024,381.455L385.922,381.612L386.04,381.758L385.859,381.709L385.756,381.866L385.747,381.679L385.566,381.63L385.741,381.563L385.732,381.376L385.732,381.376Z" style="fill:white;"/>
            <path d="M386.222,380.995L386.34,381.141L386.515,381.074L386.412,381.231L386.53,381.377L386.349,381.328L386.247,381.485L386.237,381.298L386.056,381.249L386.231,381.182L386.222,380.995L386.222,380.995Z" style="fill:white;"/>
            <path d="M386.759,380.571L386.876,380.717L387.051,380.65L386.949,380.807L387.066,380.953L386.886,380.904L386.783,381.061L386.774,380.874L386.593,380.825L386.768,380.758L386.759,380.571L386.759,380.571Z" style="fill:white;"/>
            <path d="M387.294,380.171L387.412,380.317L387.587,380.25L387.485,380.407L387.602,380.553L387.421,380.504L387.319,380.661L387.31,380.474L387.129,380.425L387.304,380.358L387.294,380.171L387.294,380.171Z" style="fill:white;"/>
            <path d="M383.952,383.662L384.069,383.808L384.244,383.741L384.142,383.898L384.259,384.043L384.079,383.995L383.976,384.151L383.967,383.964L383.786,383.916L383.961,383.849L383.952,383.662L383.952,383.662Z" style="fill:white;"/>
            <path d="M384.431,383.276L384.549,383.422L384.724,383.355L384.622,383.512L384.739,383.658L384.558,383.609L384.456,383.766L384.447,383.579L384.266,383.53L384.441,383.463L384.431,383.276L384.431,383.276Z" style="fill:white;"/>
            <path d="M384.973,382.84L385.09,382.986L385.265,382.919L385.163,383.076L385.281,383.222L385.1,383.173L384.998,383.33L384.988,383.143L384.807,383.094L384.982,383.028L384.973,382.84L384.973,382.84Z" style="fill:white;"/>
            <path d="M385.448,382.447L385.566,382.593L385.741,382.526L385.639,382.683L385.756,382.829L385.575,382.78L385.473,382.937L385.464,382.75L385.283,382.701L385.458,382.634L385.448,382.447L385.448,382.447Z" style="fill:white;"/>
            <path d="M385.928,382.061L386.045,382.207L386.22,382.14L386.118,382.297L386.236,382.443L386.055,382.394L385.952,382.551L385.943,382.364L385.762,382.315L385.937,382.248L385.928,382.061L385.928,382.061Z" style="fill:white;"/>
            <path d="M386.37,381.674L386.488,381.819L386.663,381.753L386.561,381.91L386.678,382.055L386.497,382.007L386.395,382.163L386.386,381.976L386.205,381.928L386.38,381.861L386.37,381.674L386.37,381.674Z" style="fill:white;"/>
            <path d="M386.887,381.286L387.005,381.432L387.18,381.365L387.078,381.522L387.195,381.668L387.014,381.619L386.912,381.776L386.903,381.589L386.722,381.54L386.897,381.474L386.887,381.286L386.887,381.286Z" style="fill:white;"/>
            <path d="M387.434,380.863L387.552,381.009L387.727,380.942L387.625,381.099L387.742,381.245L387.561,381.196L387.459,381.353L387.45,381.166L387.269,381.117L387.444,381.05L387.434,380.863L387.434,380.863Z" style="fill:white;"/>
            <path d="M383.87,384.552L383.987,384.698L384.162,384.631L384.06,384.788L384.177,384.934L383.997,384.885L383.894,385.042L383.885,384.855L383.704,384.806L383.879,384.739L383.87,384.552L383.87,384.552Z" style="fill:white;"/>
            <path d="M384.405,384.05L384.522,384.196L384.697,384.129L384.595,384.286L384.713,384.432L384.532,384.383L384.43,384.54L384.42,384.353L384.239,384.304L384.414,384.237L384.405,384.05L384.405,384.05Z" style="fill:white;"/>
            <path d="M384.977,383.56L385.094,383.706L385.269,383.639L385.167,383.796L385.284,383.942L385.104,383.893L385.001,384.05L384.992,383.863L384.811,383.814L384.986,383.748L384.977,383.56L384.977,383.56Z" style="fill:white;"/>
            <path d="M385.554,383.091L385.672,383.237L385.847,383.17L385.745,383.327L385.862,383.473L385.681,383.424L385.579,383.581L385.57,383.394L385.389,383.345L385.564,383.278L385.554,383.091L385.554,383.091Z" style="fill:white;"/>
            <path d="M386.071,382.694L386.189,382.84L386.364,382.773L386.262,382.93L386.379,383.076L386.199,383.027L386.096,383.184L386.087,382.997L385.906,382.948L386.081,382.881L386.071,382.694L386.071,382.694Z" style="fill:white;"/>
            <path d="M386.511,382.366L386.629,382.512L386.804,382.445L386.702,382.602L386.819,382.748L386.638,382.699L386.536,382.856L386.527,382.669L386.346,382.62L386.521,382.553L386.511,382.366L386.511,382.366Z" style="fill:white;"/>
            <path d="M387.045,381.89L387.163,382.036L387.338,381.969L387.235,382.126L387.353,382.272L387.172,382.223L387.07,382.38L387.06,382.193L386.88,382.144L387.055,382.077L387.045,381.89L387.045,381.89Z" style="fill:white;"/>
            <path d="M387.718,381.488L387.836,381.634L388.011,381.567L387.909,381.724L388.026,381.87L387.845,381.821L387.743,381.978L387.734,381.791L387.553,381.742L387.728,381.675L387.718,381.488L387.718,381.488Z" style="fill:white;"/>
            <path d="M384.129,385.129L384.247,385.275L384.422,385.208L384.319,385.365L384.437,385.511L384.256,385.462L384.154,385.619L384.144,385.432L383.963,385.383L384.138,385.317L384.129,385.129L384.129,385.129Z" style="fill:white;"/>
            <path d="M384.605,384.676L384.723,384.822L384.898,384.755L384.795,384.912L384.913,385.058L384.732,385.009L384.63,385.166L384.62,384.979L384.439,384.93L384.615,384.863L384.605,384.676L384.605,384.676Z" style="fill:white;"/>
            <path d="M385.133,384.223L385.251,384.369L385.426,384.302L385.324,384.459L385.441,384.605L385.261,384.556L385.158,384.713L385.149,384.526L384.968,384.477L385.143,384.41L385.133,384.223L385.133,384.223Z" style="fill:white;"/>
            <path d="M385.635,383.781L385.753,383.927L385.928,383.86L385.825,384.017L385.943,384.163L385.762,384.114L385.66,384.271L385.65,384.084L385.469,384.035L385.644,383.969L385.635,383.781L385.635,383.781Z" style="fill:white;"/>
            <path d="M386.176,383.339L386.294,383.485L386.469,383.419L386.367,383.575L386.484,383.721L386.303,383.672L386.201,383.829L386.192,383.642L386.011,383.593L386.186,383.527L386.176,383.339L386.176,383.339Z" style="fill:white;"/>
            <path d="M386.787,382.984L386.904,383.13L387.079,383.063L386.977,383.22L387.095,383.366L386.914,383.317L386.812,383.474L386.802,383.287L386.621,383.238L386.796,383.171L386.787,382.984L386.787,382.984Z" style="fill:white;"/>
            <path d="M387.415,382.46L387.533,382.605L387.708,382.539L387.606,382.696L387.723,382.841L387.542,382.793L387.44,382.949L387.431,382.762L387.25,382.713L387.425,382.647L387.415,382.46L387.415,382.46Z" style="fill:white;"/>
            <path d="M388.078,382.117L388.196,382.263L388.371,382.196L388.268,382.353L388.386,382.498L388.205,382.45L388.103,382.607L388.093,382.419L387.912,382.371L388.087,382.304L388.078,382.117L388.078,382.117Z" style="fill:white;"/>
            <path d="M388.272,382.694L388.389,382.84L388.564,382.773L388.462,382.93L388.58,383.075L388.399,383.027L388.297,383.184L388.287,382.996L388.106,382.948L388.281,382.881L388.272,382.694L388.272,382.694Z" style="fill:white;"/>
            <path d="M387.644,383.087L387.761,383.232L387.936,383.166L387.834,383.322L387.951,383.468L387.771,383.419L387.668,383.576L387.659,383.389L387.478,383.34L387.653,383.274L387.644,383.087L387.644,383.087Z" style="fill:white;"/>
            <path d="M387.052,383.505L387.17,383.651L387.345,383.584L387.243,383.741L387.36,383.887L387.179,383.838L387.077,383.995L387.068,383.808L386.887,383.759L387.062,383.692L387.052,383.505L387.052,383.505Z" style="fill:white;"/>
            <path d="M386.443,383.951L386.56,384.097L386.735,384.03L386.633,384.187L386.75,384.333L386.57,384.284L386.467,384.441L386.458,384.254L386.277,384.205L386.452,384.138L386.443,383.951L386.443,383.951Z" style="fill:white;"/>
            <path d="M385.889,384.349L386.007,384.495L386.182,384.428L386.079,384.585L386.197,384.731L386.016,384.682L385.914,384.839L385.904,384.652L385.723,384.603L385.898,384.536L385.889,384.349L385.889,384.349Z" style="fill:white;"/>
            <path d="M385.275,384.892L385.393,385.038L385.568,384.971L385.466,385.128L385.583,385.274L385.402,385.225L385.3,385.382L385.291,385.195L385.11,385.146L385.285,385.079L385.275,384.892L385.275,384.892Z" style="fill:white;"/>
            <path d="M384.743,385.328L384.861,385.474L385.036,385.407L384.933,385.564L385.051,385.71L384.87,385.661L384.768,385.818L384.758,385.631L384.577,385.582L384.752,385.515L384.743,385.328L384.743,385.328Z" style="fill:white;"/>
            <path d="M384.245,385.728L384.362,385.874L384.537,385.807L384.435,385.964L384.552,386.109L384.372,386.061L384.269,386.218L384.26,386.03L384.079,385.982L384.254,385.915L384.245,385.728L384.245,385.728Z" style="fill:white;"/>
            <path d="M384.292,386.31L384.41,386.455L384.585,386.389L384.482,386.546L384.6,386.691L384.419,386.643L384.317,386.799L384.307,386.612L384.126,386.564L384.301,386.497L384.292,386.31L384.292,386.31Z" style="fill:white;"/>
            <path d="M384.812,385.865L384.929,386.01L385.104,385.944L385.002,386.1L385.12,386.246L384.939,386.197L384.836,386.354L384.827,386.167L384.646,386.118L384.821,386.052L384.812,385.865L384.812,385.865Z" style="fill:white;"/>
            <path d="M385.371,385.419L385.488,385.564L385.663,385.498L385.561,385.655L385.678,385.8L385.498,385.751L385.395,385.908L385.386,385.721L385.205,385.672L385.38,385.606L385.371,385.419L385.371,385.419Z" style="fill:white;"/>
            <path d="M385.868,385.017L385.986,385.163L386.161,385.096L386.058,385.253L386.176,385.399L385.995,385.35L385.893,385.507L385.883,385.32L385.703,385.271L385.878,385.204L385.868,385.017L385.868,385.017Z" style="fill:white;"/>
            <path d="M386.364,384.574L386.482,384.72L386.657,384.653L386.555,384.81L386.672,384.956L386.491,384.907L386.389,385.064L386.38,384.877L386.199,384.828L386.374,384.761L386.364,384.574L386.364,384.574Z" style="fill:white;"/>
            <path d="M386.914,384.138L387.032,384.283L387.207,384.217L387.104,384.374L387.222,384.519L387.041,384.471L386.939,384.627L386.929,384.44L386.748,384.392L386.923,384.325L386.914,384.138L386.914,384.138Z" style="fill:white;"/>
            <path d="M387.582,383.677L387.699,383.822L387.874,383.756L387.772,383.913L387.89,384.058L387.709,384.01L387.606,384.166L387.597,383.979L387.416,383.931L387.591,383.864L387.582,383.677L387.582,383.677Z" style="fill:white;"/>
            <path d="M388.233,383.274L388.351,383.42L388.526,383.353L388.423,383.51L388.541,383.655L388.36,383.607L388.258,383.764L388.248,383.576L388.068,383.528L388.243,383.461L388.233,383.274L388.233,383.274Z" style="fill:white;"/>
            <path d="M383.87,382.951L383.987,383.097L384.162,383.03L384.06,383.187L384.177,383.333L383.997,383.284L383.894,383.441L383.885,383.254L383.704,383.205L383.879,383.138L383.87,382.951L383.87,382.951Z" style="fill:white;"/>
            <path d="M384.379,382.557L384.497,382.703L384.672,382.636L384.57,382.793L384.687,382.939L384.506,382.89L384.404,383.047L384.395,382.86L384.214,382.811L384.389,382.744L384.379,382.557L384.379,382.557Z" style="fill:white;"/>
        </g>
        <path d="M578.307,141.948C576.423,133.306 510.517,93.888 441.875,83.602C373.234,73.317 329.022,84.669 324.307,88.428C288.083,117.309 291.885,215.696 286.142,238.24C284.789,243.548 280.51,248.444 276.052,250.742C271.593,253.04 281.852,260.156 282.632,263.903C283.412,267.649 290.449,283.228 292.941,283.205C295.433,283.182 295.364,272.685 301.276,268.509C307.188,264.333 338.725,253.212 342.513,241.53C346.301,229.848 347.651,184.228 365.983,184.501C384.931,184.782 394.764,209.027 405.245,209.286C415.726,209.545 444.941,179.211 441.875,159.934C438.809,140.657 430.614,134.154 421.696,125.497C412.778,116.84 405.245,114.749 405.245,114.749C405.245,114.749 451.153,117.711 472.145,125.497C507.896,138.757 507.972,157.597 522.375,159.934C536.777,162.271 579.822,148.899 578.307,141.948L578.307,141.948Z" style="fill:rgb(255,224,178);"/>
        <path d="M553.749,259.552C553.749,259.552 524.462,276.044 509.203,276.886C503.767,277.186 509.799,253.05 509.799,253.05C519.045,263.038 538.454,258.959 553.749,259.552Z" style="fill:rgb(251,140,0);"/>
        <path d="M543.477,278.294C543.477,278.294 517.115,288.147 501.857,288.989C496.421,289.289 501.857,269.788 501.857,269.788C511.103,279.776 528.181,277.701 543.477,278.294Z" style="fill:rgb(251,140,0);"/>
        <path d="M518.223,195.098C520.667,195.098 523.988,194.327 525.302,192.569C526.466,191.012 526.143,186.794 525.302,185.996C524.064,184.819 522.212,183.756 520.344,183.467C518.536,183.188 516.099,183.167 515.186,183.467C514.273,183.768 514.922,185.688 514.68,187.007C514.548,187.728 513.217,191.271 515.186,192.569C516.817,193.645 517.115,195.098 518.223,195.098Z" style="fill:rgb(255,224,178);"/>
        <path d="M470.69,185.996C474.354,182.383 490.104,174.378 495.468,175.376C500.831,176.374 505.412,174.618 507.098,176.388C508.784,178.158 510.476,184.028 507.098,185.996C503.72,187.963 492.633,188.904 489.399,189.535C486.136,190.172 475.112,195.1 473.724,195.098C472.336,195.095 470.952,193.995 470.69,191.558C470.405,188.924 469.858,186.815 470.69,185.996L470.69,185.996Z" style="fill:rgb(255,224,178);"/>
    </g>
</svg>
